<?xml version="1.0" standalone="no"?>
<!DOCTYPE svg PUBLIC "-//W3C//DTD SVG 20010904//EN"
 "http://www.w3.org/TR/2001/REC-SVG-20010904/DTD/svg10.dtd">
<svg version="1.0" xmlns="http://www.w3.org/2000/svg"
 width="1024.000000pt" height="1024.000000pt" viewBox="0 0 1024.000000 1024.000000"
 preserveAspectRatio="xMidYMid meet">
<metadata>
Created by potrace 1.14, written by Peter Selinger 2001-2017
</metadata>
<g transform="translate(0.000000,1024.000000) scale(0.100000,-0.100000)"
fill="#000000" stroke="none">
<path d="M4865 7429 c-371 -39 -760 -173 -1072 -369 -469 -296 -862 -768
-1050 -1260 -74 -195 -128 -422 -140 -585 l-6 -90 -49 -55 c-155 -177 -247
-361 -283 -569 -20 -109 -19 -316 0 -422 70 -379 305 -693 650 -871 101 -52
159 -71 293 -98 90 -17 94 -20 155 -76 299 -280 662 -484 1062 -599 271 -77
462 -100 755 -92 401 11 759 100 1103 273 218 110 382 223 535 370 99 95 111
104 162 114 503 101 887 494 975 997 17 99 20 299 5 392 -31 190 -125 393
-265 573 l-52 66 -7 98 c-12 168 -59 363 -137 564 -115 297 -266 540 -489 788
-486 541 -1213 867 -1920 861 -80 -1 -181 -5 -225 -10z m535 -285 c58 -8 122
-20 143 -25 l37 -10 0 -267 0 -268 77 -54 c43 -30 129 -106 192 -169 l115
-113 270 3 271 4 -4 -310 c-2 -170 -4 -311 -5 -312 0 -1 -46 -2 -101 -4 -55
-1 -103 -4 -107 -6 -4 -2 -3 -14 2 -27 5 -13 12 -51 15 -83 l7 -58 -93 -43
c-52 -23 -97 -42 -100 -42 -3 0 -12 39 -19 88 -24 166 -112 378 -224 542 -70
104 -263 295 -361 359 -106 70 -258 142 -375 179 -156 50 -258 65 -430 66
-247 0 -425 -43 -652 -161 -254 -131 -494 -382 -618 -645 -47 -101 -110 -285
-110 -322 l0 -26 -106 0 -106 0 7 53 c4 28 11 62 16 75 19 51 15 53 -76 51
-47 -1 -87 0 -89 2 -8 9 45 145 101 261 175 359 466 691 793 903 207 135 317
188 531 261 336 113 665 145 999 98z m570 -154 c106 -42 276 -133 385 -206
159 -106 145 -89 145 -183 l0 -81 -330 0 -330 0 0 260 0 259 38 -13 c20 -8 62
-24 92 -36z m-965 -694 c425 -115 761 -469 831 -876 8 -47 18 -161 21 -253 5
-149 9 -172 27 -200 27 -39 60 -57 107 -57 38 0 49 7 186 123 78 67 212 136
328 169 68 19 104 23 235 23 168 -1 229 -11 365 -65 268 -106 478 -333 561
-605 25 -80 28 -106 28 -240 1 -123 -3 -166 -21 -237 -67 -263 -255 -503 -489
-621 -118 -60 -53 -57 -1461 -57 l-1290 0 0 425 -1 426 100 152 c54 84 116
186 136 226 36 72 37 79 37 180 0 94 -3 112 -27 164 -35 74 -113 156 -186 195
-289 154 -641 -91 -591 -410 12 -79 62 -179 174 -348 47 -72 89 -141 94 -153
5 -12 8 -210 8 -440 l0 -418 -511 3 c-510 3 -511 4 -576 27 -102 38 -197 99
-286 186 -131 128 -221 288 -265 470 -24 101 -26 284 -3 393 65 316 312 568
629 642 46 11 137 21 213 24 73 3 141 10 152 16 33 17 50 64 50 134 0 122 52
302 126 433 149 267 377 456 660 547 152 50 197 56 374 52 141 -3 180 -7 265
-30z m2012 -149 c33 -50 88 -144 121 -208 57 -112 138 -306 131 -313 -2 -2
-115 -7 -251 -10 l-248 -7 0 315 0 316 93 0 92 0 62 -93z m-2627 -1204 c42
-22 60 -38 77 -72 43 -83 22 -181 -53 -238 -29 -21 -50 -28 -98 -31 -54 -3
-66 0 -109 27 -120 78 -112 257 15 320 58 28 103 27 168 -6z m-220 -1963 c0
-113 -3 -150 -12 -150 -40 1 -344 186 -433 264 l-40 35 243 1 242 0 0 -150z
m1008 -114 l2 -259 -132 7 c-234 13 -347 31 -565 92 l-53 15 0 204 0 205 373
-2 372 -3 3 -259z m1308 204 c-219 -173 -470 -299 -739 -369 -107 -29 -264
-61 -293 -61 -12 0 -14 43 -14 245 l0 245 561 0 562 0 -77 -60z"/>
<path d="M5077 5489 c-45 -24 -92 -86 -101 -134 -8 -41 8 -109 36 -148 66 -92
232 -87 306 11 51 66 27 200 -45 250 -65 45 -136 53 -196 21z"/>
<path d="M6667 4675 c-114 -40 -162 -176 -98 -277 30 -47 95 -88 142 -88 74 0
159 54 185 117 42 99 -19 223 -124 253 -47 13 -58 12 -105 -5z"/>
<path d="M3410 4584 c-69 -30 -110 -93 -110 -168 0 -58 14 -93 53 -134 43 -46
78 -62 129 -62 86 1 159 53 182 131 47 159 -105 298 -254 233z"/>
</g>
</svg>
